Coordinates
version=1
nRows=13
nColumns=40
inDegrees=yes

Units are S.I. units (second, meters, Newtons, ...)
If the header above contains a line with 'inDegrees', this indicates whether rotational values are in degrees (yes) or radians (no).

endheader
time	pelvis_tilt	pelvis_list	pelvis_rotation	pelvis_tx	pelvis_ty	pelvis_tz	hip_flexion_r	hip_adduction_r	hip_rotation_r	knee_angle_r	knee_angle_r_beta	ankle_angle_r	subtalar_angle_r	mtp_angle_r	hip_flexion_l	hip_adduction_l	hip_rotation_l	knee_angle_l	knee_angle_l_beta	ankle_angle_l	subtalar_angle_l	mtp_angle_l	lumbar_extension	lumbar_bending	lumbar_rotation	arm_flex_r	arm_add_r	arm_rot_r	elbow_flex_r	pro_sup_r	wrist_flex_r	wrist_dev_r	arm_flex_l	arm_add_l	arm_rot_l	elbow_flex_l	pro_sup_l	wrist_flex_l	wrist_dev_l
      8.65000000	     87.99874678	     89.72894599	     88.00863334	      0.25509449	      0.60852526	      0.88908440	     10.62572526	     -9.61858025	    -10.96872711	     10.95065400	      0.19112497	      3.45928711	      0.00000000	      0.00000000	      5.95539579	    -11.79080269	    -17.83208914	      6.59767859	      0.11515121	      1.71189237	      0.00000000	      0.00000000	      2.27908772	     -6.02577942	     12.16060010	      3.68493759	    -13.92553016	     39.17328238	     19.35531787	     80.07194947	      0.00000000	      0.00000000	     10.57113719	    -14.50511323	     33.93262281	     19.03738788	     76.23033557	      0.00000000	      0.00000000
      8.65500000	     88.00711299	     89.72631119	     88.01742420	      0.25496105	      0.60846359	      0.88903531	     10.62780071	     -9.62602238	    -10.95455300	     10.97387875	      0.19153032	      3.48171699	      0.00000000	      0.00000000	      5.94942806	    -11.78455391	    -17.78865917	      6.59900481	      0.11517436	      1.72887323	      0.00000000	      0.00000000	      2.30887381	     -6.01378443	     12.15476108	      3.66236406	    -13.93221342	     39.19547716	     19.34407333	     80.06751859	      0.00000000	      0.00000000	     10.53416125	    -14.49507373	     33.95395039	     19.01647951	     76.23242120	      0.00000000	      0.00000000
      8.66000000	     88.00681604	     89.73007018	     88.01721080	      0.25497090	      0.60842051	      0.88900801	     10.63876799	     -9.64169266	    -10.98037000	     11.00261685	      0.19203189	      3.50591299	      0.00000000	      0.00000000	      5.94207438	    -11.78338658	    -17.77124537	      6.58906653	      0.11500091	      1.75496770	      0.00000000	      0.00000000	      2.31363680	     -6.00047082	     12.15298415	      3.67328404	    -13.94257357	     39.21717570	     19.34132846	     80.06095125	      0.00000000	      0.00000000	     10.53317099	    -14.48245573	     33.97436120	     19.00877638	     76.23372045	      0.00000000	      0.00000000
      8.66500000	     88.00798104	     89.73459290	     88.01844489	      0.25489822	      0.60837504	      0.88899033	     10.64490783	     -9.65002029	    -11.00295215	     11.03805340	      0.19265037	      3.53379971	      0.00000000	      0.00000000	      5.93090852	    -11.78187419	    -17.74679118	      6.58321917	      0.11489885	      1.78967951	      0.00000000	      0.00000000	      2.32899190	     -5.98812358	     12.15261877	      3.65986713	    -13.95349716	     39.24466736	     19.33302349	     80.05420926	      0.00000000	      0.00000000	     10.51525637	    -14.47675365	     33.99630670	     18.99452376	     76.23386857	      0.00000000	      0.00000000
      8.67000000	     88.02706169	     89.73072063	     88.03803990	      0.25470574	      0.60823570	      0.88892036	     10.64176028	     -9.66282325	    -10.98042653	     11.06922153	      0.19319436	      3.55846906	      0.00000000	      0.00000000	      5.93579854	    -11.77106481	    -17.71180110	      6.59654195	      0.11513138	      1.80477369	      0.00000000	      0.00000000	      2.36491060	     -5.97137796	     12.13872509	      3.62031876	    -13.96712274	     39.26750545	     19.31872833	     80.04982966	      0.00000000	      0.00000000	     10.47329861	    -14.45756424	     34.01735376	     18.98286455	     76.23491460	      0.00000000	      0.00000000
      8.67500000	     88.03255137	     89.73305188	     88.04409425	      0.25461369	      0.60817309	      0.88887419	     10.64421707	     -9.67372424	    -10.97625114	     11.09692557	      0.19367789	      3.58687732	      0.00000000	      0.00000000	      5.93670815	    -11.77400823	    -17.67636175	      6.61276948	      0.11541460	      1.82511802	      0.00000000	      0.00000000	      2.38348420	     -5.96054179	     12.13171288	      3.61042164	    -13.97438589	     39.28808731	     19.31654282	     80.04452472	      0.00000000	      0.00000000	     10.44396262	    -14.44183895	     34.03666566	     18.97647357	     76.23638271	      0.00000000	      0.00000000
      8.68000000	     88.05120785	     89.73972018	     88.06313492	      0.25462443	      0.60796810	      0.88884427	     10.64471470	     -9.69710958	    -10.99238337	     11.12920496	      0.19424127	      3.62364407	      0.00000000	      0.00000000	      5.95930277	    -11.76511923	    -17.67655410	      6.63645225	      0.11582794	      1.85517538	      0.00000000	      0.00000000	      2.38338907	     -5.94137056	     12.09719869	      3.61336637	    -14.00340876	     39.31062133	     19.31144217	     80.03630089	      0.00000000	      0.00000000	     10.43734758	    -14.41578031	     34.06054705	     18.97923529	     76.23760124	      0.00000000	      0.00000000
      8.68500000	     88.05829190	     89.74111451	     88.07038501	      0.25453365	      0.60792469	      0.88880697	     10.65066992	     -9.70834751	    -11.03240425	     11.16705747	      0.19490192	      3.65864157	      0.00000000	      0.00000000	      5.97107186	    -11.77022812	    -17.66387114	      6.66996670	      0.11641288	      1.88909810	      0.00000000	      0.00000000	      2.40427111	     -5.93205474	     12.08477722	      3.60488177	    -14.00858265	     39.34168494	     19.31127138	     80.02796555	      0.00000000	      0.00000000	     10.41619679	    -14.40923537	     34.08350201	     18.97296372	     76.23835545	      0.00000000	      0.00000000
      8.69000000	     88.06089751	     89.73649784	     88.07316826	      0.25441385	      0.60788981	      0.88877412	     10.66427485	     -9.72372750	    -11.04981316	     11.20409350	      0.19554832	      3.67719718	      0.00000000	      0.00000000	      5.97941391	    -11.77015350	    -17.63860549	      6.70289237	      0.11698754	      1.91062630	      0.00000000	      0.00000000	      2.44060783	     -5.92981106	     12.08764318	      3.58393022	    -14.00785186	     39.36633602	     19.30755154	     80.02243052	      0.00000000	      0.00000000	     10.37504863	    -14.40729767	     34.10215904	     18.95958854	     76.23911746	      0.00000000	      0.00000000
      8.69500000	     88.05975567	     89.73778332	     88.07218778	      0.25427193	      0.60792865	      0.88873140	     10.67208742	     -9.72801831	    -11.06089227	     11.24453516	      0.19625416	      3.69997956	      0.00000000	      0.00000000	      5.97295832	    -11.77822440	    -17.60957372	      6.72573492	      0.11738622	      1.94368401	      0.00000000	      0.00000000	      2.47296374	     -5.92717565	     12.09578494	      3.56280799	    -14.00007814	     39.39261115	     19.30385209	     80.01703676	      0.00000000	      0.00000000	     10.34512771	    -14.41043916	     34.11752407	     18.95000213	     76.23959181	      0.00000000	      0.00000000
      8.70000000	     88.06645538	     89.74407026	     88.07855046	      0.25424403	      0.60785198	      0.88867774	     10.68002313	     -9.74343343	    -11.09582467	     11.28716563	      0.19699820	      3.73930481	      0.00000000	      0.00000000	      5.97685683	    -11.77716535	    -17.62126116	      6.73643454	      0.11757296	      1.99323590	      0.00000000	      0.00000000	      2.48292933	     -5.91844287	     12.08294575	      3.56995735	    -14.01517833	     39.42014779	     19.29811712	     80.00637616	      0.00000000	      0.00000000	     10.33404641	    -14.40559186	     34.13946168	     18.94341184	     76.23960766	      0.00000000	      0.00000000
      8.70500000	     88.07317204	     89.73824027	     88.08526381	      0.25412479	      0.60782421	      0.88863557	     10.69043374	     -9.75128170	    -11.10071137	     11.32344659	      0.19763143	      3.76334082	      0.00000000	      0.00000000	      5.97635691	    -11.77305515	    -17.60592014	      6.75212439	      0.11784680	      2.01648534	      0.00000000	      0.00000000	      2.52122078	     -5.91936705	     12.08024006	      3.54221659	    -14.00948010	     39.44681042	     19.29081240	     80.00095249	      0.00000000	      0.00000000	     10.30880389	    -14.40776322	     34.15527653	     18.93287612	     76.23907977	      0.00000000	      0.00000000
      8.71000000	     88.07925626	     89.73885795	     88.09145694	      0.25408705	      0.60778206	      0.88859837	     10.69665402	     -9.76061245	    -11.11642833	     11.35322265	      0.19815112	      3.79051450	      0.00000000	      0.00000000	      5.97564926	    -11.77091293	    -17.60843604	      6.75814907	      0.11795195	      2.04243260	      0.00000000	      0.00000000	      2.54361515	     -5.91322271	     12.07290735	      3.54379419	    -14.01686416	     39.46925551	     19.28685886	     79.99317111	      0.00000000	      0.00000000	     10.29035249	    -14.40554766	     34.17297420	     18.92190317	     76.23831744	      0.00000000	      0.00000000
